<mxfile host="app.diagrams.net" modified="2021-05-14T07:13:17.508Z" agent="5.0 (Windows NT 10.0; Win64; x64) AppleWebKit/537.36 (KHTML, like Gecko) Chrome/90.0.4430.212 Safari/537.36" etag="LGVCk9yP4a0bG5we6_n7" version="14.6.13" type="github">
  <diagram id="C5RBs43oDa-KdzZeNtuy" name="Page-1">
    <mxGraphModel dx="1406" dy="796" grid="1" gridSize="10" guides="1" tooltips="1" connect="1" arrows="1" fold="1" page="1" pageScale="1" pageWidth="827" pageHeight="1169" math="0" shadow="0">
      <root>
        <mxCell id="WIyWlLk6GJQsqaUBKTNV-0" />
        <mxCell id="WIyWlLk6GJQsqaUBKTNV-1" parent="WIyWlLk6GJQsqaUBKTNV-0" />
        <mxCell id="mrj2op35i07_h0z98bzS-25" value="Workflow" style="rounded=1;fillColor=#253858;strokeColor=none;html=1;fontColor=#ffffff;align=left;fontSize=12;spacingLeft=10" vertex="1" parent="WIyWlLk6GJQsqaUBKTNV-1">
          <mxGeometry x="360" y="263" width="210" height="33" as="geometry" />
        </mxCell>
        <mxCell id="mrj2op35i07_h0z98bzS-26" value="" style="shape=triangle;direction=south;fillColor=#ffffff;strokeColor=none;html=1" vertex="1" parent="mrj2op35i07_h0z98bzS-25">
          <mxGeometry x="1" y="0.5" width="12" height="6" relative="1" as="geometry">
            <mxPoint x="-20" y="-3" as="offset" />
          </mxGeometry>
        </mxCell>
        <mxCell id="mrj2op35i07_h0z98bzS-27" value="" style="rounded=1;fillColor=#ffffff;strokeColor=#DFE1E5;shadow=1;html=1;arcSize=4" vertex="1" parent="WIyWlLk6GJQsqaUBKTNV-1">
          <mxGeometry x="360" y="296" width="210" height="154" as="geometry" />
        </mxCell>
        <mxCell id="mrj2op35i07_h0z98bzS-28" value="Closed" style="rounded=0;strokeColor=none;shadow=0;html=1;align=left;fontSize=12;spacingLeft=10;fontColor=#253858;resizeWidth=1;fillColor=none;" vertex="1" parent="mrj2op35i07_h0z98bzS-27">
          <mxGeometry width="209.99999999999997" height="33" relative="1" as="geometry">
            <mxPoint y="6" as="offset" />
          </mxGeometry>
        </mxCell>
        <mxCell id="mrj2op35i07_h0z98bzS-29" value="Reviewed" style="rounded=0;fillColor=none;strokeColor=none;shadow=0;html=1;align=left;fontSize=12;spacingLeft=10;fontColor=#253858;resizeWidth=1" vertex="1" parent="mrj2op35i07_h0z98bzS-27">
          <mxGeometry width="209.99999999999997" height="33" relative="1" as="geometry">
            <mxPoint y="39" as="offset" />
          </mxGeometry>
        </mxCell>
        <mxCell id="mrj2op35i07_h0z98bzS-30" value="Abandoned" style="rounded=0;fillColor=none;strokeColor=none;shadow=0;html=1;align=left;fontSize=12;spacingLeft=10;fontColor=#253858;resizeWidth=1" vertex="1" parent="mrj2op35i07_h0z98bzS-27">
          <mxGeometry width="209.99999999999997" height="33" relative="1" as="geometry">
            <mxPoint y="72" as="offset" />
          </mxGeometry>
        </mxCell>
        <mxCell id="mrj2op35i07_h0z98bzS-31" value="Workflow" style="rounded=0;fillColor=none;strokeColor=none;shadow=0;html=1;align=left;fontSize=12;spacingLeft=10;fontColor=#253858;resizeWidth=1" vertex="1" parent="mrj2op35i07_h0z98bzS-27">
          <mxGeometry width="227.5" height="40" relative="1" as="geometry">
            <mxPoint y="105" as="offset" />
          </mxGeometry>
        </mxCell>
      </root>
    </mxGraphModel>
  </diagram>
</mxfile>
